<mxfile host="app.diagrams.net" modified="2021-08-31T07:59:23.885Z" agent="5.0 (Macintosh; Intel Mac OS X 10_15_7) AppleWebKit/537.36 (KHTML, like Gecko) Chrome/92.0.4515.159 Safari/537.36" etag="25fEtcxV9MmnRBpf64VU" version="14.8.5" type="github">
  <diagram id="kgpKYQtTHZ0yAKxKKP6v" name="Page-1">
    <mxGraphModel dx="1666" dy="794" grid="1" gridSize="10" guides="1" tooltips="1" connect="1" arrows="1" fold="1" page="1" pageScale="1" pageWidth="850" pageHeight="1100" math="0" shadow="0">
      <root>
        <mxCell id="0" />
        <mxCell id="1" parent="0" />
        <mxCell id="DwF5OTt0q-HiYiaA3RM--1" value="&lt;font style=&quot;font-size: 10px&quot;&gt;Actor&lt;/font&gt;" style="shape=umlActor;verticalLabelPosition=bottom;verticalAlign=top;html=1;outlineConnect=0;" vertex="1" parent="1">
          <mxGeometry x="30" y="90" width="25" height="40" as="geometry" />
        </mxCell>
        <mxCell id="DwF5OTt0q-HiYiaA3RM--7" value="guide-service" style="shape=umlLifeline;perimeter=lifelinePerimeter;whiteSpace=wrap;html=1;container=1;collapsible=0;recursiveResize=0;outlineConnect=0;" vertex="1" parent="1">
          <mxGeometry x="170" y="40" width="100" height="1840" as="geometry" />
        </mxCell>
        <mxCell id="DwF5OTt0q-HiYiaA3RM--10" value="" style="html=1;points=[];perimeter=orthogonalPerimeter;" vertex="1" parent="1">
          <mxGeometry x="215" y="100" width="10" height="1750" as="geometry" />
        </mxCell>
        <mxCell id="DwF5OTt0q-HiYiaA3RM--11" value="" style="html=1;verticalAlign=bottom;endArrow=block;entryX=0;entryY=0;" edge="1" target="DwF5OTt0q-HiYiaA3RM--10" parent="1">
          <mxGeometry relative="1" as="geometry">
            <mxPoint x="60" y="100" as="sourcePoint" />
          </mxGeometry>
        </mxCell>
        <mxCell id="DwF5OTt0q-HiYiaA3RM--15" value="&lt;font&gt;&lt;font style=&quot;font-size: 6px&quot;&gt;idToHomePublishMap&lt;br&gt;idToMaterialMap&lt;br&gt;appClientId&lt;br&gt;apiVersion&lt;br&gt;nativeVersion&lt;br&gt;stationId&lt;br&gt;cityNumber&lt;/font&gt;&lt;br&gt;&lt;/font&gt;" style="text;html=1;align=center;verticalAlign=middle;resizable=0;points=[];autosize=1;strokeColor=none;" vertex="1" parent="1">
          <mxGeometry x="70" y="100" width="130" height="100" as="geometry" />
        </mxCell>
        <mxCell id="DwF5OTt0q-HiYiaA3RM--18" value="Loop&lt;br&gt;(HOME_SPECIAL_ZONE_NEW)" style="shape=umlFrame;whiteSpace=wrap;html=1;width=190;height=40;" vertex="1" parent="1">
          <mxGeometry x="10" y="210" width="570" height="320" as="geometry" />
        </mxCell>
        <mxCell id="DwF5OTt0q-HiYiaA3RM--20" value="getDeliveryHomePublishModelBO&lt;br&gt;getDeliveryHomeMaterialModesBO" style="edgeStyle=orthogonalEdgeStyle;html=1;align=left;spacingLeft=2;endArrow=block;rounded=0;" edge="1" parent="1">
          <mxGeometry relative="1" as="geometry">
            <mxPoint x="225" y="230" as="sourcePoint" />
            <Array as="points">
              <mxPoint x="255" y="230" />
              <mxPoint x="255" y="270" />
              <mxPoint x="225" y="270" />
            </Array>
            <mxPoint x="225" y="270" as="targetPoint" />
          </mxGeometry>
        </mxCell>
        <mxCell id="DwF5OTt0q-HiYiaA3RM--21" value="product-base-service-api" style="shape=umlLifeline;perimeter=lifelinePerimeter;whiteSpace=wrap;html=1;container=1;collapsible=0;recursiveResize=0;outlineConnect=0;" vertex="1" parent="1">
          <mxGeometry x="495" y="40" width="290" height="1850" as="geometry" />
        </mxCell>
        <mxCell id="DwF5OTt0q-HiYiaA3RM--25" value="" style="html=1;points=[];perimeter=orthogonalPerimeter;" vertex="1" parent="DwF5OTt0q-HiYiaA3RM--21">
          <mxGeometry x="140" y="550" width="10" height="80" as="geometry" />
        </mxCell>
        <mxCell id="DwF5OTt0q-HiYiaA3RM--22" value="getMaterialInfo(DeliveryHomeMaterialsModelBO,&lt;br&gt;publishModelBoId,appClientId,apiVersion,&lt;br&gt;nativeVersion,stationId)" style="edgeStyle=orthogonalEdgeStyle;html=1;align=left;spacingLeft=2;endArrow=block;rounded=0;" edge="1" parent="1">
          <mxGeometry relative="1" as="geometry">
            <mxPoint x="225" y="300" as="sourcePoint" />
            <Array as="points">
              <mxPoint x="255" y="300" />
              <mxPoint x="255" y="360" />
            </Array>
            <mxPoint x="224" y="360" as="targetPoint" />
          </mxGeometry>
        </mxCell>
        <mxCell id="DwF5OTt0q-HiYiaA3RM--24" value="setHasFlashSale&lt;br&gt;setHasOffSale" style="edgeStyle=orthogonalEdgeStyle;html=1;align=left;spacingLeft=2;endArrow=block;rounded=0;" edge="1" parent="1">
          <mxGeometry relative="1" as="geometry">
            <mxPoint x="226" y="390" as="sourcePoint" />
            <Array as="points">
              <mxPoint x="256" y="390" />
              <mxPoint x="256" y="430" />
              <mxPoint x="225" y="430" />
            </Array>
            <mxPoint x="225" y="430" as="targetPoint" />
          </mxGeometry>
        </mxCell>
        <mxCell id="DwF5OTt0q-HiYiaA3RM--26" value="productIds、stationId" style="html=1;verticalAlign=bottom;endArrow=block;entryX=0;entryY=0;" edge="1" target="DwF5OTt0q-HiYiaA3RM--25" parent="1">
          <mxGeometry relative="1" as="geometry">
            <mxPoint x="229" y="590" as="sourcePoint" />
          </mxGeometry>
        </mxCell>
        <mxCell id="DwF5OTt0q-HiYiaA3RM--27" value="上架的商品Ids" style="html=1;verticalAlign=bottom;endArrow=open;dashed=1;endSize=8;exitX=0;exitY=0.95;entryX=1.1;entryY=0.387;entryDx=0;entryDy=0;entryPerimeter=0;" edge="1" source="DwF5OTt0q-HiYiaA3RM--25" parent="1">
          <mxGeometry relative="1" as="geometry">
            <mxPoint x="225" y="666.01" as="targetPoint" />
          </mxGeometry>
        </mxCell>
        <mxCell id="DwF5OTt0q-HiYiaA3RM--28" value="promo-guide-service" style="shape=umlLifeline;perimeter=lifelinePerimeter;whiteSpace=wrap;html=1;container=1;collapsible=0;recursiveResize=0;outlineConnect=0;" vertex="1" parent="1">
          <mxGeometry x="820" y="40" width="130" height="1870" as="geometry" />
        </mxCell>
        <mxCell id="DwF5OTt0q-HiYiaA3RM--29" value="" style="html=1;points=[];perimeter=orthogonalPerimeter;" vertex="1" parent="DwF5OTt0q-HiYiaA3RM--28">
          <mxGeometry x="60" y="720" width="10" height="80" as="geometry" />
        </mxCell>
        <mxCell id="DwF5OTt0q-HiYiaA3RM--30" value="stationId" style="html=1;verticalAlign=bottom;endArrow=block;entryX=0;entryY=0;" edge="1" target="DwF5OTt0q-HiYiaA3RM--29" parent="DwF5OTt0q-HiYiaA3RM--28">
          <mxGeometry relative="1" as="geometry">
            <mxPoint x="-590" y="720" as="sourcePoint" />
          </mxGeometry>
        </mxCell>
        <mxCell id="DwF5OTt0q-HiYiaA3RM--31" value="限时抢购的商品信息" style="html=1;verticalAlign=bottom;endArrow=open;dashed=1;endSize=8;exitX=0;exitY=0.95;" edge="1" source="DwF5OTt0q-HiYiaA3RM--29" parent="DwF5OTt0q-HiYiaA3RM--28">
          <mxGeometry relative="1" as="geometry">
            <mxPoint x="-590" y="796" as="targetPoint" />
          </mxGeometry>
        </mxCell>
        <mxCell id="DwF5OTt0q-HiYiaA3RM--33" value="" style="html=1;points=[];perimeter=orthogonalPerimeter;" vertex="1" parent="DwF5OTt0q-HiYiaA3RM--28">
          <mxGeometry x="60" y="880" width="10" height="80" as="geometry" />
        </mxCell>
        <mxCell id="DwF5OTt0q-HiYiaA3RM--34" value="stationId" style="html=1;verticalAlign=bottom;endArrow=block;entryX=0;entryY=0;" edge="1" parent="DwF5OTt0q-HiYiaA3RM--28" target="DwF5OTt0q-HiYiaA3RM--33">
          <mxGeometry relative="1" as="geometry">
            <mxPoint x="-590" y="880" as="sourcePoint" />
          </mxGeometry>
        </mxCell>
        <mxCell id="DwF5OTt0q-HiYiaA3RM--35" value="限时抢购的商品信息" style="html=1;verticalAlign=bottom;endArrow=open;dashed=1;endSize=8;exitX=0;exitY=0.95;" edge="1" parent="DwF5OTt0q-HiYiaA3RM--28" source="DwF5OTt0q-HiYiaA3RM--33">
          <mxGeometry relative="1" as="geometry">
            <mxPoint x="-590" y="956" as="targetPoint" />
          </mxGeometry>
        </mxCell>
        <mxCell id="DwF5OTt0q-HiYiaA3RM--38" value="" style="html=1;points=[];perimeter=orthogonalPerimeter;" vertex="1" parent="DwF5OTt0q-HiYiaA3RM--28">
          <mxGeometry x="60" y="1080" width="10" height="80" as="geometry" />
        </mxCell>
        <mxCell id="DwF5OTt0q-HiYiaA3RM--40" value="清仓折扣的商品信息" style="html=1;verticalAlign=bottom;endArrow=open;dashed=1;endSize=8;exitX=0;exitY=0.95;" edge="1" source="DwF5OTt0q-HiYiaA3RM--38" parent="DwF5OTt0q-HiYiaA3RM--28">
          <mxGeometry relative="1" as="geometry">
            <mxPoint x="-590" y="1156" as="targetPoint" />
          </mxGeometry>
        </mxCell>
        <mxCell id="DwF5OTt0q-HiYiaA3RM--36" value="[ddmc_promotion.public_guide配置包含站点]" style="text;html=1;align=center;verticalAlign=middle;resizable=0;points=[];autosize=1;strokeColor=none;" vertex="1" parent="1">
          <mxGeometry x="235" y="710" width="250" height="20" as="geometry" />
        </mxCell>
        <mxCell id="DwF5OTt0q-HiYiaA3RM--37" value="[ddmc_promotion.public_guide配置不包含站点]" style="text;html=1;align=center;verticalAlign=middle;resizable=0;points=[];autosize=1;strokeColor=none;" vertex="1" parent="1">
          <mxGeometry x="225" y="880" width="270" height="20" as="geometry" />
        </mxCell>
        <mxCell id="DwF5OTt0q-HiYiaA3RM--39" value="stationId" style="html=1;verticalAlign=bottom;endArrow=block;entryX=0;entryY=0;exitX=1.2;exitY=0.773;exitDx=0;exitDy=0;exitPerimeter=0;" edge="1" target="DwF5OTt0q-HiYiaA3RM--38" parent="1">
          <mxGeometry relative="1" as="geometry">
            <mxPoint x="227" y="1120.79" as="sourcePoint" />
          </mxGeometry>
        </mxCell>
        <mxCell id="DwF5OTt0q-HiYiaA3RM--41" value="Opt(hasOffSale)" style="shape=umlFrame;whiteSpace=wrap;html=1;width=130;height=30;" vertex="1" parent="1">
          <mxGeometry x="70" y="1070" width="855" height="170" as="geometry" />
        </mxCell>
        <mxCell id="DwF5OTt0q-HiYiaA3RM--42" value="getHomePublishModelMaterialBOs" style="edgeStyle=orthogonalEdgeStyle;html=1;align=left;spacingLeft=2;endArrow=block;rounded=0;" edge="1" parent="1">
          <mxGeometry relative="1" as="geometry">
            <mxPoint x="226" y="460" as="sourcePoint" />
            <Array as="points">
              <mxPoint x="256" y="460" />
              <mxPoint x="256" y="500" />
              <mxPoint x="225" y="500" />
            </Array>
            <mxPoint x="225" y="500" as="targetPoint" />
          </mxGeometry>
        </mxCell>
        <mxCell id="DwF5OTt0q-HiYiaA3RM--43" value="Loop&lt;br&gt;(HomePublishModelMaterialBOs)" style="shape=umlFrame;whiteSpace=wrap;html=1;width=200;height=40;" vertex="1" parent="1">
          <mxGeometry x="10" y="1250" width="590" height="80" as="geometry" />
        </mxCell>
        <mxCell id="DwF5OTt0q-HiYiaA3RM--45" value="setAditemBO" style="edgeStyle=orthogonalEdgeStyle;html=1;align=left;spacingLeft=2;endArrow=block;rounded=0;" edge="1" parent="1">
          <mxGeometry relative="1" as="geometry">
            <mxPoint x="225" y="1270" as="sourcePoint" />
            <Array as="points">
              <mxPoint x="255" y="1270" />
              <mxPoint x="255" y="1320" />
              <mxPoint x="225" y="1320" />
            </Array>
            <mxPoint x="225" y="1320" as="targetPoint" />
          </mxGeometry>
        </mxCell>
        <mxCell id="DwF5OTt0q-HiYiaA3RM--32" value="Alt(hasFlashSale)" style="shape=umlFrame;whiteSpace=wrap;html=1;width=130;height=30;" vertex="1" parent="1">
          <mxGeometry x="70" y="690" width="855" height="340" as="geometry" />
        </mxCell>
        <mxCell id="DwF5OTt0q-HiYiaA3RM--48" value="" style="html=1;points=[];perimeter=orthogonalPerimeter;strokeColor=#FF0000;fillColor=#FF0000;" vertex="1" parent="1">
          <mxGeometry x="370" y="1620" width="15" height="80" as="geometry" />
        </mxCell>
        <mxCell id="DwF5OTt0q-HiYiaA3RM--49" value="productIds" style="html=1;verticalAlign=bottom;endArrow=block;entryX=0;entryY=0;strokeColor=#FF0000;fillColor=#FF0000;" edge="1" target="DwF5OTt0q-HiYiaA3RM--48" parent="1">
          <mxGeometry relative="1" as="geometry">
            <mxPoint x="225" y="1620" as="sourcePoint" />
          </mxGeometry>
        </mxCell>
        <mxCell id="DwF5OTt0q-HiYiaA3RM--50" value="&lt;span style=&quot;font-size: 12px ; background-color: rgb(248 , 249 , 250)&quot;&gt;商品信息&lt;/span&gt;" style="html=1;verticalAlign=bottom;endArrow=open;dashed=1;endSize=8;exitX=0;exitY=0.95;strokeColor=#FF0000;fillColor=#FF0000;" edge="1" source="DwF5OTt0q-HiYiaA3RM--48" parent="1">
          <mxGeometry relative="1" as="geometry">
            <mxPoint x="225" y="1696" as="targetPoint" />
          </mxGeometry>
        </mxCell>
        <mxCell id="DwF5OTt0q-HiYiaA3RM--51" value="productList" style="text;html=1;align=center;verticalAlign=middle;resizable=0;points=[];autosize=1;strokeColor=none;" vertex="1" parent="1">
          <mxGeometry x="390" y="1650" width="70" height="20" as="geometry" />
        </mxCell>
        <mxCell id="DwF5OTt0q-HiYiaA3RM--54" value="" style="html=1;points=[];perimeter=orthogonalPerimeter;strokeColor=#FF0000;fillColor=#FF0000;" vertex="1" parent="1">
          <mxGeometry x="370" y="1750" width="15" height="80" as="geometry" />
        </mxCell>
        <mxCell id="DwF5OTt0q-HiYiaA3RM--55" value="" style="html=1;verticalAlign=bottom;endArrow=block;entryX=0;entryY=0;strokeColor=#FF0000;fillColor=#FF0000;" edge="1" parent="1" target="DwF5OTt0q-HiYiaA3RM--54">
          <mxGeometry relative="1" as="geometry">
            <mxPoint x="225" y="1750" as="sourcePoint" />
          </mxGeometry>
        </mxCell>
        <mxCell id="DwF5OTt0q-HiYiaA3RM--56" value="" style="html=1;verticalAlign=bottom;endArrow=open;dashed=1;endSize=8;exitX=0;exitY=0.95;strokeColor=#FF0000;fillColor=#FF0000;" edge="1" parent="1" source="DwF5OTt0q-HiYiaA3RM--54">
          <mxGeometry relative="1" as="geometry">
            <mxPoint x="225" y="1826" as="targetPoint" />
          </mxGeometry>
        </mxCell>
        <mxCell id="DwF5OTt0q-HiYiaA3RM--57" value="格式化数据" style="text;html=1;align=center;verticalAlign=middle;resizable=0;points=[];autosize=1;strokeColor=none;" vertex="1" parent="1">
          <mxGeometry x="385" y="1780" width="80" height="20" as="geometry" />
        </mxCell>
        <mxCell id="DwF5OTt0q-HiYiaA3RM--60" value="Alt" style="shape=umlFrame;whiteSpace=wrap;html=1;strokeColor=#FF0000;fillColor=#FFFFFF;width=70;height=40;" vertex="1" parent="1">
          <mxGeometry y="550" width="1050" height="980" as="geometry" />
        </mxCell>
        <mxCell id="DwF5OTt0q-HiYiaA3RM--61" value="&lt;span&gt;layer_id = maicai_app_&lt;br&gt;home_details_new_product&lt;br&gt;并且命中B组或C组，&lt;br&gt;并且appClient不是微信的&lt;br&gt;为true&lt;br&gt;&lt;/span&gt;" style="text;html=1;align=center;verticalAlign=middle;resizable=0;points=[];autosize=1;strokeColor=none;" vertex="1" parent="1">
          <mxGeometry x="50" y="1370" width="160" height="80" as="geometry" />
        </mxCell>
        <mxCell id="DwF5OTt0q-HiYiaA3RM--62" value="" style="html=1;points=[];perimeter=orthogonalPerimeter;strokeColor=#FF0000;fillColor=#FF0000;" vertex="1" parent="1">
          <mxGeometry x="370" y="1380" width="15" height="80" as="geometry" />
        </mxCell>
        <mxCell id="DwF5OTt0q-HiYiaA3RM--63" value="" style="html=1;verticalAlign=bottom;endArrow=block;entryX=0;entryY=0;strokeColor=#FF0000;fillColor=#FF0000;" edge="1" parent="1" target="DwF5OTt0q-HiYiaA3RM--62">
          <mxGeometry relative="1" as="geometry">
            <mxPoint x="225" y="1380" as="sourcePoint" />
          </mxGeometry>
        </mxCell>
        <mxCell id="DwF5OTt0q-HiYiaA3RM--64" value="" style="html=1;verticalAlign=bottom;endArrow=open;dashed=1;endSize=8;exitX=0;exitY=0.95;strokeColor=#FF0000;fillColor=#FF0000;" edge="1" parent="1" source="DwF5OTt0q-HiYiaA3RM--62">
          <mxGeometry relative="1" as="geometry">
            <mxPoint x="225" y="1456" as="targetPoint" />
          </mxGeometry>
        </mxCell>
        <mxCell id="DwF5OTt0q-HiYiaA3RM--65" value="走V2的逻辑，会从ES&lt;br&gt;拿叮咚新品的数据" style="text;html=1;align=center;verticalAlign=middle;resizable=0;points=[];autosize=1;strokeColor=none;" vertex="1" parent="1">
          <mxGeometry x="385" y="1405" width="130" height="30" as="geometry" />
        </mxCell>
      </root>
    </mxGraphModel>
  </diagram>
</mxfile>
